<?xml version="1.0" standalone="no"?>
<!DOCTYPE svg PUBLIC "-//W3C//DTD SVG 20010904//EN"
 "http://www.w3.org/TR/2001/REC-SVG-20010904/DTD/svg10.dtd">
<svg version="1.0" xmlns="http://www.w3.org/2000/svg"
 width="230.000000pt" height="259.000000pt" viewBox="0 0 230.000000 259.000000"
 preserveAspectRatio="xMidYMid meet">

<g transform="translate(0.000000,259.000000) scale(0.100000,-0.100000)"
fill="#000000" stroke="none">
<path d="M750 2269 c-31 -6 -54 -18 -72 -39 -27 -29 -38 -80 -18 -80 15 0 12
-36 -5 -50 -19 -16 -19 -73 0 -109 26 -51 71 -81 122 -81 40 0 50 5 81 37 43
46 82 127 82 170 0 47 -28 110 -59 132 -34 24 -75 30 -131 20z m138 -131 c3
-34 1 -38 -21 -38 -36 0 -53 24 -38 56 8 18 18 24 34 22 18 -2 23 -10 25 -40z"/>
<path d="M1454 2251 c-17 -10 -46 -43 -63 -72 -28 -44 -31 -56 -22 -76 6 -13
11 -32 11 -41 0 -37 49 -122 82 -142 71 -43 168 -16 200 57 23 52 21 75 -9 83
l-21 5 20 42 20 43 -26 45 c-15 25 -40 52 -56 60 -40 20 -99 19 -136 -4z m166
-131 c0 -35 -3 -40 -24 -40 -34 0 -49 22 -36 54 7 19 17 26 35 26 23 0 25 -4
25 -40z"/>
<path d="M598 2134 c-4 -5 -20 -64 -36 -130 -16 -65 -44 -148 -61 -184 -45
-93 -84 -165 -97 -181 -7 -8 -27 -54 -45 -104 -29 -80 -33 -101 -33 -195 0
-85 4 -116 22 -161 31 -78 76 -136 155 -203 56 -48 72 -57 99 -54 28 3 34 9
54 57 21 55 21 55 3 110 -15 43 -19 82 -19 195 1 78 5 175 10 216 25 198 25
231 -5 326 -22 67 -30 117 -34 204 -3 63 -9 110 -13 104z"/>
<path d="M1709 1988 c-1 -10 -50 -183 -65 -231 -16 -54 -17 -73 -6 -220 7 -89
12 -221 12 -294 0 -148 -12 -192 -77 -271 -34 -41 -35 -44 -18 -63 20 -21 60
-26 71 -8 3 6 25 19 48 29 61 26 171 111 205 157 56 77 64 101 59 177 -4 60
-17 98 -81 246 -72 169 -100 265 -122 422 -3 26 -10 50 -16 53 -5 4 -9 5 -10
3z"/>
<path d="M1025 1860 c-3 -5 -3 -10 2 -10 161 -6 243 -4 240 5 -5 14 -233 19
-242 5z"/>
<path d="M945 1833 c-41 -21 -74 -52 -91 -85 -24 -45 -16 -43 44 13 31 30 68
62 82 71 32 22 6 23 -35 1z"/>
<path d="M1310 1820 c20 -10 52 -36 73 -57 37 -38 81 -112 72 -122 -3 -2 -38
12 -78 32 -96 47 -174 61 -299 54 -80 -5 -111 -12 -156 -34 -31 -15 -64 -27
-74 -27 -9 -1 -20 -4 -24 -9 -4 -4 -7 -63 -6 -132 2 -118 4 -129 32 -186 37
-73 90 -126 168 -167 32 -17 71 -43 87 -58 23 -21 32 -24 44 -15 9 6 52 29 96
52 165 85 210 147 227 311 15 150 -2 249 -52 310 -32 39 -85 68 -122 68 -20
-1 -19 -3 12 -20z"/>
<path d="M818 935 c-12 -28 3 -120 44 -255 36 -119 45 -96 51 122 3 160 4 158
-54 158 -22 0 -32 -7 -41 -25z"/>
<path d="M1401 908 c-18 -43 -34 -264 -22 -287 7 -11 16 -21 21 -21 16 0 106
302 95 320 -3 6 -24 10 -46 10 -32 0 -41 -4 -48 -22z"/>
<path d="M446 468 c-2 -7 -14 -50 -26 -96 -13 -45 -20 -85 -17 -88 9 -9 27 6
27 22 0 8 3 14 8 14 4 0 17 3 29 6 17 5 22 1 25 -17 2 -12 9 -24 17 -27 17 -6
10 43 -20 136 -20 59 -35 77 -43 50z m24 -70 c0 -7 3 -23 6 -35 5 -19 2 -23
-16 -23 -18 0 -21 4 -16 23 3 12 6 28 6 35 0 6 5 12 10 12 6 0 10 -6 10 -12z"/>
<path d="M550 380 l0 -100 25 0 c69 0 104 49 89 125 -7 40 -50 75 -91 75 -22
0 -23 -3 -23 -100z m74 48 c31 -44 12 -118 -30 -118 -11 0 -14 16 -14 70 0 76
14 91 44 48z"/>
<path d="M860 465 c0 -8 9 -15 20 -15 18 0 20 -7 20 -62 0 -70 8 -108 21 -108
5 0 9 38 9 85 0 85 0 85 26 85 16 0 24 5 22 13 -3 7 -27 13 -61 15 -46 2 -57
0 -57 -13z"/>
<path d="M990 381 l0 -101 50 0 c28 0 50 5 50 10 0 6 -16 10 -35 10 -33 0 -35
2 -35 34 0 26 5 36 20 41 27 9 25 25 -3 25 -21 0 -23 4 -19 31 4 26 8 30 33
27 16 -1 30 2 31 7 2 6 -18 11 -44 13 l-48 3 0 -100z"/>
<path d="M1170 421 c0 -86 9 -117 36 -130 36 -16 70 1 78 39 9 50 7 150 -4
150 -12 0 -19 -30 -22 -99 -2 -38 -8 -57 -20 -65 -31 -19 -42 7 -40 89 2 62 0
75 -13 75 -12 0 -15 -12 -15 -59z"/>
<path d="M1322 383 c2 -72 7 -98 17 -101 11 -4 13 6 7 52 -7 65 5 74 24 15 19
-56 28 -57 41 -4 15 61 29 57 29 -10 0 -70 17 -72 25 -2 9 70 3 140 -12 145
-7 2 -23 -19 -37 -50 -19 -44 -25 -50 -31 -33 -19 56 -36 85 -50 85 -13 0 -15
-15 -13 -97z"/>
<path d="M1554 466 c-5 -12 1 -174 7 -186 1 -3 5 13 8 35 5 35 10 40 39 46 19
4 39 12 45 18 17 17 12 70 -9 86 -24 19 -83 19 -90 1z m76 -20 c6 -8 10 -25 8
-38 -2 -18 -9 -23 -33 -23 -26 0 -30 4 -33 29 -5 41 32 62 58 32z"/>
<path d="M1724 473 c-38 -5 -44 -20 -44 -120 l0 -73 45 0 c25 0 45 5 45 10 0
6 -13 10 -30 10 -28 0 -30 3 -30 35 0 28 4 35 20 35 11 0 20 5 20 11 0 6 -9
13 -20 16 -14 4 -20 14 -20 34 0 26 3 29 35 29 19 0 35 5 35 10 0 6 -6 9 -12
8 -7 0 -27 -3 -44 -5z"/>
<path d="M1797 474 c-10 -11 3 -24 24 -24 17 0 19 -8 19 -86 0 -64 3 -85 13
-82 8 3 13 32 15 86 3 74 5 82 22 82 11 0 20 7 20 15 0 11 -13 15 -53 15 -30
0 -57 -3 -60 -6z"/>
<path d="M734 455 c-44 -30 -37 -139 10 -165 21 -11 29 -10 50 4 50 32 50 142
0 165 -32 14 -35 14 -60 -4z m66 -77 c0 -61 -23 -88 -52 -61 -25 22 -25 108
-1 122 33 18 53 -4 53 -61z"/>
<path d="M1120 185 c-22 -27 12 -49 38 -23 8 8 9 15 1 25 -15 17 -24 16 -39
-2z"/>
</g>
</svg>
