<?xml version="1.0" standalone="no"?>
<!DOCTYPE svg PUBLIC "-//W3C//DTD SVG 20010904//EN"
 "http://www.w3.org/TR/2001/REC-SVG-20010904/DTD/svg10.dtd">
<svg version="1.0" xmlns="http://www.w3.org/2000/svg"
 width="471.000000pt" height="530.000000pt" viewBox="0 0 471.000000 530.000000"
 preserveAspectRatio="xMidYMid meet">

<g transform="translate(0.000000,530.000000) scale(0.100000,-0.100000)"
fill="#000000" stroke="none">
<path d="M1560 4650 c-77 -10 -122 -31 -169 -80 -50 -51 -82 -139 -61 -165 7
-9 19 -14 27 -11 9 4 13 -4 13 -29 0 -24 -9 -45 -32 -71 -30 -34 -33 -43 -32
-98 0 -73 31 -140 93 -203 106 -110 250 -122 347 -28 24 23 44 49 44 57 0 9 7
22 16 29 54 44 114 193 114 281 0 222 -142 347 -360 318z m244 -212 c10 -14
16 -44 16 -80 l0 -58 -48 0 c-67 0 -87 22 -78 87 3 27 13 53 23 61 27 19 70
15 87 -10z"/>
<path d="M3050 4641 c-46 -14 -105 -49 -132 -78 -41 -44 -128 -195 -128 -223
0 -14 9 -40 20 -58 11 -18 27 -66 35 -107 21 -101 46 -156 92 -202 70 -70 169
-100 270 -82 113 21 180 80 214 190 32 104 22 143 -38 139 -45 -3 -63 -1 -63
9 0 5 8 12 18 16 21 6 42 45 42 75 0 10 9 22 20 25 28 9 25 39 -9 110 -67 139
-141 196 -255 194 -34 0 -72 -4 -86 -8z m264 -273 c11 -42 -7 -118 -27 -118
-7 0 -29 5 -49 10 -50 14 -62 38 -47 93 15 58 15 58 67 55 45 -3 47 -5 56 -40z"/>
<path d="M1211 4369 c-16 -38 -48 -162 -85 -326 -46 -200 -125 -398 -186 -464
-16 -19 -30 -41 -30 -50 0 -23 -57 -139 -82 -165 -31 -35 -127 -296 -154 -423
-25 -112 -22 -323 5 -423 45 -172 146 -348 251 -438 246 -214 260 -223 336
-198 37 13 39 16 81 125 l42 112 -30 88 c-43 130 -52 236 -44 548 5 225 11
304 37 475 37 254 35 307 -21 478 -67 203 -84 301 -83 494 1 132 -2 169 -13
178 -12 10 -16 7 -24 -11z"/>
<path d="M3499 4059 c-6 -12 -20 -63 -30 -113 -10 -50 -41 -158 -69 -241 -69
-206 -75 -254 -53 -456 15 -133 18 -243 17 -584 l-1 -420 -36 -83 c-36 -85
-61 -121 -134 -198 -24 -25 -43 -50 -43 -56 0 -24 51 -77 85 -88 41 -13 64 -8
104 26 16 13 73 46 127 74 115 58 322 209 357 260 13 19 43 64 67 98 67 99 89
163 90 258 0 145 -15 191 -205 634 -55 127 -107 266 -121 320 -33 133 -81 373
-89 449 -7 67 -31 141 -46 141 -4 0 -13 -10 -20 -21z"/>
<path d="M2125 3831 c-12 -5 -27 -16 -34 -25 -16 -19 -42 -17 229 -21 118 -1
239 -8 269 -14 114 -24 294 -170 345 -281 13 -28 34 -62 46 -75 16 -18 21 -31
16 -49 -9 -37 -38 -33 -110 13 -79 51 -150 83 -261 118 -87 26 -97 27 -315 27
-294 0 -359 -15 -518 -115 -30 -20 -34 -20 -57 -5 -35 23 -42 20 -55 -18 -14
-43 -15 -251 -1 -296 8 -25 8 -50 -1 -92 -15 -72 -3 -130 52 -242 52 -105 127
-204 198 -260 31 -25 106 -72 166 -103 66 -35 133 -81 171 -115 35 -32 67 -58
73 -58 5 0 17 11 26 24 10 16 80 58 184 111 183 93 275 160 340 247 87 116
119 212 134 396 20 256 21 317 3 358 -10 22 -23 67 -31 102 -34 160 -165 287
-322 312 -43 7 -61 16 -78 37 l-22 28 -214 2 c-117 1 -222 -1 -233 -6z"/>
<path d="M1983 3775 c-93 -28 -191 -111 -237 -199 -49 -93 -30 -89 72 16 53
56 130 123 171 150 74 48 72 58 -6 33z"/>
<path d="M1703 1955 c-33 -23 -46 -77 -39 -159 8 -79 58 -281 113 -455 33
-102 38 -112 50 -95 26 36 31 91 36 396 l5 306 -43 11 c-60 15 -97 14 -122 -4z"/>
<path d="M2913 1896 c-46 -21 -59 -57 -67 -181 -3 -60 -13 -169 -22 -241 -19
-148 -15 -190 23 -235 l26 -31 13 25 c23 43 81 226 139 436 54 193 56 206 39
218 -10 7 -32 13 -48 13 -17 0 -40 2 -51 5 -11 3 -34 -2 -52 -9z"/>
<path d="M907 963 c-3 -10 -9 -38 -12 -63 -4 -25 -22 -92 -40 -150 -18 -58
-35 -122 -38 -142 -5 -35 -4 -38 19 -38 20 0 29 9 44 45 19 45 20 45 68 45 53
0 62 -10 62 -67 0 -19 6 -23 30 -23 24 0 30 4 30 23 0 32 -54 240 -82 317 -20
56 -27 65 -50 68 -18 2 -28 -2 -31 -15z m72 -250 c1 -9 -14 -13 -40 -13 -35 0
-40 3 -34 18 4 9 14 45 22 80 l16 64 18 -69 c10 -37 18 -74 18 -80z"/>
<path d="M1120 903 c0 -43 3 -135 7 -205 l6 -128 42 0 c36 0 158 40 177 58 4
4 11 39 16 77 9 60 7 80 -10 140 -19 67 -22 72 -73 103 -43 26 -63 32 -109 32
l-56 0 0 -77z m129 0 c34 -24 42 -36 51 -81 18 -82 0 -143 -50 -171 -21 -11
-42 -21 -48 -21 -11 0 -27 273 -17 289 10 17 21 13 64 -16z"/>
<path d="M1750 950 c0 -29 2 -30 44 -30 l43 0 6 -67 c4 -38 7 -116 7 -175 l0
-108 25 0 25 0 2 173 3 172 48 3 c45 3 47 5 47 33 l0 29 -125 0 -125 0 0 -30z"/>
<path d="M2030 776 l0 -204 100 0 c99 0 100 0 100 24 0 23 -2 24 -76 24 l-77
0 7 46 c3 26 6 57 6 70 0 20 7 25 40 30 34 6 40 10 40 30 0 22 -3 23 -45 17
l-45 -6 0 62 0 61 75 0 c73 0 75 1 75 25 l0 25 -100 0 -100 0 0 -204z"/>
<path d="M2390 855 c0 -85 5 -144 16 -184 16 -55 20 -60 63 -81 l47 -21 49 19
c46 18 50 23 62 68 7 27 16 111 20 187 l6 137 -30 0 -31 0 -6 -132 c-9 -169
-12 -183 -43 -203 -22 -15 -29 -15 -50 -4 -37 20 -43 47 -43 200 l0 139 -30 0
-30 0 0 -125z"/>
<path d="M2700 821 c0 -87 3 -179 6 -205 6 -41 10 -46 32 -46 l25 0 -6 113
c-5 117 3 179 17 122 9 -38 68 -198 76 -208 4 -4 21 41 39 100 18 59 37 112
42 117 9 10 15 -97 10 -191 -3 -53 -2 -53 27 -53 l29 0 7 168 c8 191 3 242
-24 242 -38 0 -50 -14 -85 -106 -20 -52 -40 -92 -45 -89 -4 2 -13 26 -19 51
-7 26 -23 68 -37 95 -22 45 -28 49 -59 49 l-35 0 0 -159z"/>
<path d="M3180 775 l0 -205 25 0 c25 0 25 1 25 80 l0 80 40 0 c22 0 57 7 79
16 79 31 88 155 16 210 -27 21 -43 24 -108 24 l-77 0 0 -205z m152 138 c25
-22 25 -100 1 -119 -10 -7 -37 -14 -60 -14 l-43 0 0 75 0 75 42 0 c24 0 49 -7
60 -17z"/>
<path d="M3519 973 l-66 -4 -7 -52 c-3 -29 -6 -118 -6 -199 l0 -148 100 0 c91
0 100 2 100 19 0 22 -26 31 -94 31 l-49 0 7 53 c3 28 6 60 6 70 0 13 9 17 40
17 36 0 40 3 40 24 0 22 -6 26 -45 32 l-45 6 0 60 0 61 70 -7 70 -7 0 25 c0
22 -4 26 -27 24 -16 -1 -58 -3 -94 -5z"/>
<path d="M3670 951 c0 -28 2 -30 48 -33 l47 -3 0 -173 0 -172 26 0 c36 0 39
15 39 198 l0 152 45 0 c43 0 45 1 45 30 l0 30 -125 0 -125 0 0 -29z"/>
<path d="M1510 943 c-25 -14 -47 -27 -49 -29 -2 -2 -10 -34 -18 -71 -12 -61
-12 -75 3 -136 15 -62 21 -72 66 -108 27 -21 53 -39 57 -39 4 0 32 17 61 37
51 36 55 41 71 107 16 66 16 73 -1 133 -23 78 -21 76 -74 107 -55 32 -60 32
-116 -1z m97 -55 l33 -23 -1 -95 0 -95 -35 -29 -35 -29 -36 36 c-34 34 -36 40
-41 116 -5 80 -4 81 28 111 38 36 44 36 87 8z"/>
<path d="M2287 382 c-34 -36 -34 -48 3 -67 41 -21 57 -19 85 11 l25 26 -21 29
c-26 37 -57 37 -92 1z"/>
</g>
</svg>
